<svg width="350" height="350" viewBox="0 0 350 350" fill="none" xmlns="http://www.w3.org/2000/svg">
<rect width="350" height="350" rx="175" fill="url(#paint0_linear_72_13952)" fill-opacity="0.2"/>
<g clip-path="url(#clip0_72_13952)">
<path d="M215.097 187.914L213.323 200.46C213.323 200.46 221.244 206.354 223.953 210.329C226.663 214.303 226.351 222.4 225.665 225.508C224.979 228.615 218.952 236.818 212.613 240.797C212.613 240.797 217.998 238.81 220.53 237.072C223.061 235.333 229.904 229.128 232.997 222.424C236.09 215.72 234.038 207.341 229.746 199.641C225.454 191.941 217.787 188.293 217.787 188.293L215.097 187.914ZM208.34 170.293C208.34 170.293 196.583 172.893 194.645 173.52C192.708 174.148 191.207 174.631 189.951 175.752C188.695 176.872 187.918 181.469 188.172 181.977C188.426 182.484 190.67 183.088 191.979 182.719C193.288 182.35 203.262 179.846 205.195 178.994C207.127 178.141 211.663 176.762 211.006 173.659C210.35 170.556 208.34 170.293 208.34 170.293V170.293ZM127.739 111.784C127.739 111.784 118.177 118.488 116.024 121.131C114.907 122.51 111.268 128.543 110.75 133.509C110.232 138.474 113.627 144.939 122.018 152.5C130.41 160.06 159.478 171.514 160.859 172.017C162.24 172.52 163.736 173.396 165.51 173.271C167.284 173.147 179.723 168.062 179.723 168.062L180.102 167.195C180.102 167.195 176.712 166.075 172.223 164.954C167.735 163.834 149.029 155.526 141.693 151.8C134.356 148.075 125.922 141.007 122.968 133.552C120.014 126.097 127.739 111.784 127.739 111.784ZM164.662 225.369C160.993 225.206 160.461 225 158.883 224.502C157.306 224.004 156.169 223.272 154.534 221.912C153.88 221.333 153.462 220.535 153.36 219.669C153.257 218.803 153.477 217.929 153.978 217.214C154.788 216.223 157.814 216.194 159.291 215.577C160.768 214.959 161.828 213.661 162.096 211.396C162.461 208.322 159.099 205.411 154.937 202.634C150.549 199.703 143.597 197.692 138.667 196.332C133.738 194.972 130.645 194 117.396 193.981C98.9394 193.981 90.2794 198.434 85.0527 202.6C78.819 207.561 77.86 216.486 79.1787 222.764C80.4973 229.042 88.3901 234.998 100.368 239.696C112.347 244.393 121.314 246.332 129.556 247.936C137.799 249.541 152.918 252.299 170.392 250.69C187.865 249.081 202.548 243.263 211.942 234.998C224.284 224.143 218.405 214.241 217.269 210.53C216.132 206.819 209.237 202.624 207.875 202.006C206.513 201.389 207.094 200.273 206.825 199.536C206.557 198.798 207.333 191.132 207.333 191.132C207.333 191.132 207.242 189.772 206.149 189.897C205.056 190.021 202.016 190.514 200.285 190.883C198.554 191.252 191.097 194.714 189.831 195.456C188.565 196.198 185.995 196.94 184.422 196.691C182.849 196.442 181.449 195.087 181.171 194.221C180.893 193.354 180.855 192.861 181.622 191.257C182.389 189.652 181.099 180.626 180.625 180.133C180.15 179.64 178.846 179.884 178.846 179.884L174.185 182.355H171.308C171.308 182.355 144.934 169.752 141.741 168.272C138.547 166.793 119.137 159.376 109.474 147.017C99.8121 134.658 108.395 121.787 112.232 117.367C119.688 108.791 137.766 102.121 146.541 99.8611C160.659 96.1812 175.17 94.2181 189.759 94.0144C203.627 93.7942 219.355 95.992 233.17 101.8C246.984 107.609 251.77 113.168 252.556 114.897C253.343 116.625 257.601 124.167 249.722 130.961C241.844 137.756 227.526 137.387 222.472 137.387C215.392 137.336 208.399 135.822 201.934 132.939C188.172 126.714 190.037 116.874 190.637 116.012C191.236 115.15 192.555 113.479 194.535 113.618C199.081 113.982 199.033 116.611 199.618 121.797C200.203 126.982 204.744 129.089 210.167 130.942C215.927 132.881 222.097 133.264 228.053 132.053C231.117 131.474 239.562 130.2 242.971 122.17C246.38 114.14 235.466 109.462 229.736 106.124C224.006 102.787 212.603 100.067 200.006 98.9417C189.04 97.984 173.154 98.324 157.771 104.874C142.388 111.425 141.271 120.441 142.906 127.983C144.541 135.525 152.07 139.595 157.133 142.827C162.197 146.059 177.872 150.158 178.922 150.651C181.562 151.677 184.266 152.531 187.016 153.208C189.251 153.687 191.514 154.693 191.84 155.018C192.166 155.344 192.478 157.819 192.679 158.724C192.881 159.629 191.653 160.783 191.279 161.688C190.905 162.593 191.207 162.847 191.692 163.503C192.176 164.159 192.483 164.159 194.372 164.083C196.261 164.006 199.431 162.924 201.292 162.431C203.152 161.937 210.158 159.141 211.141 158.648C212.124 158.155 212.522 157.412 213.538 157.24C214.555 157.068 216.761 157.326 218.084 157.412C219.408 157.499 220.079 158.648 220.573 159.39C221.067 160.132 220.688 161.032 220.314 162.019C219.94 163.005 219.192 164.825 218.842 166.06C218.492 167.296 219.417 172.156 219.614 172.979C219.81 173.803 219.983 173.971 221.172 174.291C222.361 174.612 222.198 174.215 223.215 174.215C224.231 174.215 226.408 173.736 227.559 173.473C228.659 173.183 229.782 172.989 230.916 172.893C232.49 173.004 234.04 173.337 235.519 173.884C236.374 174.254 237.051 174.941 237.408 175.8C237.586 176.37 238.31 178.026 238.665 179.013C239.113 180.175 239.841 181.21 240.784 182.025C241.964 183.136 251.698 193.938 252.834 197.098C256.383 206.986 255.366 217.612 248.269 226.14C241.173 234.668 225.732 243.517 212.901 248.545C200.069 253.572 181.502 256.536 159.627 255.957C137.751 255.378 133.541 253.726 117.775 250.513C105.94 248.011 94.4764 243.999 83.6669 238.575C78.493 235.932 69.948 231.081 65.0858 222.261C60.2235 213.441 64.7885 205.459 68.8931 201.255C72.9978 197.051 78.8382 193.986 87.1866 191.759C95.5349 189.533 101.471 189.164 107.019 188.915C112.567 188.666 121.064 188.652 125.193 188.982C129.321 189.313 141.352 191.702 145.697 192.937C150.041 194.173 160.303 198.621 164.427 201.01C168.55 203.4 171.835 205.593 174.525 208.562C177.215 211.531 177.359 212.871 177.695 214.26C178.097 215.921 178.284 218.804 176.966 220.964C175.647 223.123 172.621 224.234 171.212 224.651C169.802 225.067 168.335 225.532 164.652 225.369H164.662Z" fill="#D2D6AB"/>
<path fill-rule="evenodd" clip-rule="evenodd" d="M51.3334 183.949C55.0688 183.949 58.8042 183.121 61.7772 181.048C66.5724 177.662 67.656 172.429 67.656 169.556C67.656 164.03 65.738 159.744 57.5575 153.323L55.6394 151.8C49.1372 146.48 47.2 144.139 47.2 140.198C47.2 135.151 50.9354 132.182 55.7066 132.182C62.0745 132.182 63.9398 135.084 64.3378 135.845C64.8071 136.946 65.1109 138.109 65.2393 139.298C65.3064 139.849 65.3736 140.198 65.7908 140.198C66.2079 140.198 66.2703 139.719 66.2703 138.608C66.2703 133.911 66.5484 131.632 66.5484 131.287C66.5484 130.942 66.4093 130.808 65.8531 130.808C65.0437 130.777 64.24 130.66 63.4555 130.459C61.3476 129.972 59.1886 129.74 57.0252 129.769C48.2358 129.769 42.7022 134.811 42.7022 142.219C42.7022 146.916 44.3613 151.202 51.6979 157.211L54.8099 159.763C60.7606 164.671 62.765 167.425 62.765 172.213C62.765 176.638 59.5139 181.402 52.8727 181.402C48.2358 181.402 43.6708 179.487 42.635 174.358C42.4732 173.516 42.4025 172.659 42.4241 171.801C42.4241 171.246 42.3569 171.04 41.9446 171.04C41.5993 171.04 41.465 171.385 41.3931 172.146C41.326 173.252 41.0479 176.015 41.0479 179.467C41.0479 181.335 41.115 181.608 42.0836 182.091C44.8744 183.466 48.0583 183.949 51.3334 183.949Z" fill="#231F20"/>
<path fill-rule="evenodd" clip-rule="evenodd" d="M80.0227 162.588C80.0227 167.343 80.0226 171.26 79.7733 173.343C79.5767 174.78 79.3273 175.871 78.3348 176.068C77.8456 176.184 77.346 176.252 76.8435 176.269C76.5462 176.269 76.4455 176.417 76.4455 176.566C76.4455 176.863 76.6948 176.958 77.2415 176.958C78.7328 176.958 81.8592 176.81 82.1085 176.81C83.5471 176.81 86.8701 177.107 94.3649 177.107C96.2829 177.107 96.7001 177.107 97.0454 175.819C97.3413 174.234 97.5573 172.636 97.6927 171.03C97.6927 170.686 97.6927 170.288 97.3954 170.288C97.0981 170.288 97.0454 170.484 96.9495 171.03C96.5994 173.065 95.9904 174.057 94.7149 174.602C93.4394 175.148 91.2385 175.144 89.9486 175.144C85.0863 175.144 84.3383 174.502 84.1944 171.083C84.1465 170.039 84.1944 164.293 84.1944 162.608V158.226C84.1891 158.179 84.1944 158.131 84.2101 158.086C84.2258 158.042 84.2515 158.001 84.2851 157.967C84.3187 157.934 84.3595 157.908 84.4044 157.892C84.4493 157.877 84.4972 157.871 84.5445 157.877C85.3884 157.877 90.2986 157.977 91.6413 158.126C93.5593 158.327 94.0388 159.165 94.221 159.859C94.3784 160.39 94.4465 160.943 94.4224 161.497C94.4224 161.746 94.5183 161.942 94.7677 161.942C95.1129 161.942 95.1129 161.396 95.1129 160.984C95.1129 160.573 95.2136 158.806 95.3143 157.814C95.463 156.177 95.7123 155.334 95.7123 155.037C95.7123 154.74 95.6116 154.645 95.463 154.645C95.3143 154.645 95.065 154.889 94.7197 155.286C94.2738 155.765 93.5785 155.88 92.3845 155.98C91.1905 156.081 85.1391 156.081 84.4917 156.081C84.2472 156.081 84.1944 155.933 84.1944 155.602V141.898C84.1944 141.553 84.2951 141.419 84.4917 141.419C85.0384 141.419 90.4521 141.467 91.2912 141.568C93.9765 141.864 94.4704 142.458 94.8156 143.253C95.0167 143.825 95.1172 144.428 95.1129 145.034C95.1129 145.432 95.2136 145.681 95.5109 145.681C95.7123 145.681 95.8082 145.384 95.861 145.135C95.9569 144.541 96.0576 142.362 96.1103 141.864C96.259 140.476 96.5035 139.882 96.5035 139.537C96.5035 139.288 96.4556 139.087 96.3069 139.087C96.0576 139.087 95.861 139.288 95.6116 139.336C94.9086 139.479 94.1948 139.562 93.4778 139.585C92.3366 139.633 82.449 139.633 82.1133 139.633C81.864 139.633 78.7567 139.485 76.503 139.485C75.9564 139.485 75.707 139.585 75.707 139.882C75.707 140.078 75.9084 140.179 76.105 140.179C76.6709 140.179 77.2358 140.228 77.7929 140.327C79.4328 140.677 79.826 141.467 79.9267 143.152C80.0274 144.737 80.0275 146.126 80.0275 153.859L80.0227 162.588Z" fill="#231F20"/>
<path fill-rule="evenodd" clip-rule="evenodd" d="M114.073 153.869C114.073 146.136 114.073 144.771 114.174 143.162C114.274 141.429 114.653 140.586 116.092 140.337C116.633 140.251 117.179 140.201 117.727 140.188C117.928 140.188 118.125 140.088 118.125 139.892C118.125 139.595 117.876 139.494 117.329 139.494C115.842 139.494 112.217 139.643 111.973 139.643C111.728 139.643 108.616 139.494 106.362 139.494C105.816 139.494 105.566 139.595 105.566 139.892C105.566 140.088 105.768 140.188 105.964 140.188C106.53 140.188 107.095 140.238 107.652 140.337C109.292 140.686 109.685 141.477 109.786 143.162C109.887 144.747 109.887 146.136 109.887 153.869V162.593C109.887 167.348 109.887 171.265 109.637 173.348C109.441 174.784 109.192 175.876 108.199 176.072C107.71 176.189 107.21 176.256 106.708 176.274C106.41 176.274 106.314 176.422 106.314 176.57C106.314 176.867 106.559 176.963 107.106 176.963C108.597 176.963 111.522 176.815 111.973 176.815C114.85 176.815 118.125 177.112 125.274 177.112C127.902 177.112 128.051 176.915 128.401 175.776C128.78 174.146 129.029 172.489 129.144 170.82C129.144 170.274 129.096 170.077 128.847 170.077C128.597 170.077 128.449 170.322 128.401 170.719C128.213 171.798 127.771 172.817 127.111 173.693C125.917 175.129 123.754 175.182 121.103 175.182C117.233 175.182 115.943 174.832 115.147 174.042C114.255 173.147 114.054 169.977 114.054 162.689L114.073 153.869Z" fill="#231F20"/>
<path fill-rule="evenodd" clip-rule="evenodd" d="M143.064 153.869C143.064 146.136 143.064 144.771 143.165 143.162C143.261 141.429 143.645 140.586 145.002 140.337C145.409 140.254 145.823 140.205 146.239 140.188C146.44 140.188 146.637 140.088 146.637 139.892C146.637 139.595 146.387 139.494 145.846 139.494C144.354 139.494 141.228 139.643 140.979 139.643C140.729 139.643 137.622 139.494 135.968 139.494C135.421 139.494 135.172 139.595 135.172 139.892C135.172 140.088 135.368 140.188 135.57 140.188C136.089 140.195 136.606 140.262 137.109 140.39C138.202 140.634 138.696 141.477 138.797 143.162C138.897 144.747 138.897 146.136 138.897 153.869V162.593C138.897 167.348 138.897 171.265 138.648 173.348C138.447 174.784 138.202 175.876 137.21 176.072C136.72 176.188 136.221 176.256 135.718 176.274C135.421 176.274 135.32 176.422 135.32 176.57C135.32 176.867 135.57 176.963 136.116 176.963C137.603 176.963 140.729 176.815 140.979 176.815C141.228 176.815 144.335 176.963 147.083 176.963C147.629 176.963 147.879 176.815 147.879 176.57C147.879 176.422 147.778 176.274 147.481 176.274C146.733 176.246 145.987 176.178 145.246 176.072C143.76 175.876 143.462 174.784 143.328 173.348C143.079 171.265 143.079 167.348 143.079 162.593L143.064 153.869Z" fill="#231F20"/>
<path fill-rule="evenodd" clip-rule="evenodd" d="M183.2 172.749C183.224 173.104 183.143 173.458 182.967 173.767C182.79 174.075 182.526 174.324 182.207 174.483C180.917 175.225 178.337 175.522 176.549 175.522C174.136 175.551 171.741 175.096 169.507 174.186C167.273 173.276 165.244 171.927 163.539 170.221C161.804 168.536 158.265 163.479 158.265 156.493C158.265 150.689 160.298 146.184 163.18 143.899C166.949 140.926 170.675 140.629 173.801 140.629C180.203 140.629 184.226 142.76 185.463 144.646C186.056 145.643 186.414 146.761 186.508 147.917C186.556 148.362 186.604 148.659 186.853 148.659C187.203 148.659 187.299 148.41 187.299 147.62C187.283 145.269 187.4 142.919 187.649 140.581C187.649 140.385 187.549 140.184 187.055 140.136C185.703 140.085 184.358 139.925 183.032 139.657C180.53 139.15 177.988 138.868 175.436 138.814C171.6 138.814 166.704 139.164 162.235 141.936C157.766 144.709 153.949 150.297 153.949 158.226C153.949 164.422 156.826 169.718 159.857 172.352C165.366 177.14 172.415 177.653 176.189 177.653C179.066 177.653 183.535 177.107 186.71 175.426C187.304 175.077 187.357 174.976 187.357 172.749V167.195C187.357 165.117 187.357 163.628 187.453 162.043C187.554 160.309 187.932 159.466 189.289 159.217C189.698 159.133 190.114 159.083 190.531 159.069C190.733 159.069 190.929 158.968 190.929 158.772C190.929 158.475 190.68 158.375 190.133 158.375C188.647 158.375 185.52 158.523 185.271 158.523C185.022 158.523 181.914 158.375 179.661 158.375C179.114 158.375 178.87 158.475 178.87 158.772C178.87 158.968 179.066 159.069 179.263 159.069C179.829 159.066 180.394 159.116 180.951 159.217C182.936 159.763 183.185 160.309 183.185 164.322L183.2 172.749Z" fill="#231F20"/>
<path fill-rule="evenodd" clip-rule="evenodd" d="M205.463 177.653C208.144 177.653 210.824 177.059 212.958 175.575C214.256 174.627 215.314 173.389 216.047 171.96C216.78 170.53 217.167 168.949 217.178 167.343C217.178 163.379 215.787 160.309 209.933 155.698L208.542 154.606C203.876 150.776 202.486 149.105 202.486 146.279C202.486 142.664 205.166 140.533 208.59 140.533C213.16 140.533 214.497 142.612 214.795 143.157C215.13 143.948 215.348 144.784 215.442 145.638C215.49 146.035 215.543 146.279 215.84 146.279C216.137 146.279 216.185 145.935 216.185 145.14C216.185 141.788 216.382 140.136 216.382 139.873C216.382 139.609 216.286 139.528 215.902 139.528C215.317 139.507 214.735 139.423 214.167 139.279C212.652 138.934 211.102 138.773 209.549 138.8C203.243 138.8 199.273 142.42 199.273 147.721C199.273 151.073 200.467 154.166 205.727 158.48L207.962 160.314C212.229 163.829 213.668 165.811 213.668 169.235C213.668 172.405 211.337 175.824 206.571 175.824C203.243 175.824 199.968 174.44 199.225 170.772C199.111 170.167 199.061 169.553 199.076 168.938C199.076 168.54 199.028 168.392 198.726 168.392C198.424 168.392 198.381 168.636 198.333 169.182C198.28 169.977 198.084 171.959 198.084 174.449C198.084 175.785 198.132 175.982 198.827 176.331C200.91 177.268 203.18 177.72 205.463 177.653V177.653Z" fill="#231F20"/>
<path fill-rule="evenodd" clip-rule="evenodd" d="M224.222 158.178C224.222 167.099 229.88 177.653 243.479 177.653C255.443 177.653 263.283 168.483 263.283 157.384C263.283 145.834 254.944 138.795 243.776 138.795C230.077 138.795 224.222 150.148 224.222 158.178ZM228.936 156.79C228.936 145.935 235.14 140.481 243.431 140.481C251.271 140.481 258.522 146.873 258.522 158.772C258.522 173.195 249.286 175.771 244.822 175.771C235.888 175.771 228.936 168.335 228.936 156.79Z" fill="#231F20"/>
<path fill-rule="evenodd" clip-rule="evenodd" d="M275.348 146.481C276.935 148.262 282.54 154.511 288.295 160.702C293.569 166.352 300.704 173.631 301.241 174.133C303.874 176.762 304.469 177.308 304.867 177.308C305.265 177.308 305.313 177.059 305.313 173.789L305.408 144.742C305.408 141.769 305.61 140.682 307.245 140.332C307.634 140.229 308.036 140.179 308.439 140.184C308.784 140.184 308.986 140.035 308.986 139.839C308.986 139.542 308.636 139.49 308.089 139.49C306.056 139.49 304.416 139.638 303.874 139.638C303.332 139.638 300.944 139.49 298.71 139.49C298.115 139.49 297.717 139.542 297.717 139.839C297.717 140.035 297.765 140.184 298.115 140.184C298.931 140.193 299.745 140.276 300.546 140.433C302.085 140.83 302.431 141.917 302.464 145.14L303.011 170.317C301.419 168.684 296.01 162.656 291.095 157.388C283.452 149.21 276.057 141.228 275.314 140.39C274.835 139.911 273.972 138.8 273.574 138.8C273.176 138.8 273.027 139.346 273.027 141.28L273.013 169.671C273.013 174.181 272.763 175.618 271.526 175.963C270.865 176.161 270.178 176.263 269.488 176.264C269.239 176.264 269.09 176.36 269.09 176.561C269.09 176.906 269.387 176.954 269.886 176.954C272.121 176.954 274.202 176.805 274.652 176.805C275.103 176.805 277.084 176.954 279.927 176.954C280.522 176.954 280.819 176.858 280.819 176.561C280.819 176.36 280.67 176.264 280.421 176.264C279.586 176.259 278.754 176.158 277.942 175.963C276.599 175.57 276.105 174.277 276.024 170.217L275.348 146.481Z" fill="#231F20"/>
<path d="M78.4595 184.189H306.075" stroke="#231F20" stroke-width="1.07" stroke-linecap="round" stroke-linejoin="round"/>
<path fill-rule="evenodd" clip-rule="evenodd" d="M209.856 227.016C211.08 227.697 212.387 228.219 213.745 228.568H210.867C205.329 228.568 203.675 228.06 199.517 224.876L199.124 224.574L198.76 224.904C197.621 225.993 196.328 226.91 194.924 227.624C192.572 228.759 189.983 229.321 187.371 229.262C177.1 229.262 174.166 222.908 174.166 218.9C174.166 213.427 179.037 209.079 181.924 207.686L182.571 207.374L182.14 206.8C180.14 204.137 179.771 202.232 179.742 200.096C179.694 196.562 182.85 191.577 191.207 191.577C193.184 191.562 195.148 191.901 197.005 192.578C197.36 192.703 197.417 192.808 197.427 192.827C197.446 192.871 197.455 192.918 197.455 192.966C197.463 193.082 197.463 193.199 197.455 193.316C197.455 194.508 197.24 196.964 197.067 198.454C196.904 197.19 196.383 195.999 195.566 195.02C194.459 193.684 192.55 192.578 189.606 192.578C187.304 192.578 183.703 194.182 183.703 198.803C183.703 201.317 184.859 203.591 186.451 205.761C187.242 206.838 188.163 207.911 189.131 208.988C190.1 210.065 191.102 211.128 192.095 212.23C193.811 214.198 199.949 219.723 200.874 220.552L201.354 220.992L201.738 220.456C203.283 218.076 204.145 215.319 204.231 212.483C204.256 211.969 204.164 211.455 203.962 210.981C203.76 210.507 203.454 210.084 203.066 209.744C202.795 209.506 202.483 209.318 202.145 209.189C203.243 209.227 204.648 209.318 206.355 209.5C206.687 209.526 207.011 209.608 207.314 209.744C207.377 209.772 207.432 209.813 207.477 209.864C207.477 213.546 205.53 218.004 202.769 221.27L202.375 221.749L202.855 222.132C205.051 223.948 207.393 225.582 209.856 227.016V227.016ZM198.064 223.712L197.585 223.286C194.708 220.82 189.985 216.185 188.7 214.806C187.414 213.427 184.259 209.874 183.425 208.681L183.08 208.174L182.6 208.538C180.773 209.879 178.937 212.369 178.937 216.544C178.937 223.056 183.559 227.294 189.054 227.294C193.054 227.294 196.472 225.235 197.604 224.157L198.064 223.712Z" fill="#231F20"/>
<path fill-rule="evenodd" clip-rule="evenodd" d="M262.948 195.595C262.866 196.979 262.89 199.148 262.842 200.383C262.64 198.772 261.938 197.265 260.833 196.074C259.068 194.158 255.079 192.818 250.543 192.818C246.198 192.818 243.278 193.943 241.005 196.045C237.279 199.531 236.344 204.448 236.344 209.313C236.344 221.462 245.431 227.548 252.245 227.548C256.561 227.548 259.438 227.069 261.581 224.574C262.295 223.707 262.841 222.715 263.192 221.648C262.979 223.479 262.659 225.295 262.233 227.088C262.037 227.768 261.965 227.868 261.308 228.146C259.471 228.893 255.88 229.243 252.768 229.243C246.189 229.243 240.751 227.777 236.464 223.975C231.866 219.862 230.628 214.504 230.628 209.802C230.628 206.527 231.626 200.867 236.133 196.658C239.49 193.502 243.983 191.558 251.108 191.558C253.444 191.544 255.778 191.704 258.09 192.037C259.941 192.286 261.509 192.736 262.972 192.885C263.038 192.889 263.105 192.902 263.168 192.923C263.162 193.012 263.162 193.102 263.168 193.191C263.168 193.339 263.135 193.507 263.115 193.718C263.058 194.153 263 194.733 262.948 195.595Z" fill="#231F20"/>
<path fill-rule="evenodd" clip-rule="evenodd" d="M288.942 191.563C300.537 191.563 307.643 198.525 307.643 209.51C307.643 220.494 300.254 229.238 288.463 229.238C275.175 229.238 269.819 218.938 269.819 210.4C269.824 202.164 275.031 191.563 288.942 191.563ZM287.537 192.76C281.625 192.76 274.993 196.198 274.993 208.863C274.993 219.355 280.747 227.94 290.5 227.94C294.174 227.94 302.368 226.025 302.368 211.344C302.368 200.014 295.924 192.76 287.537 192.76Z" fill="#231F20"/>
</g>
<rect x="0.5" y="0.5" width="349" height="349" rx="174.5" stroke="url(#paint1_linear_72_13952)" stroke-opacity="0.2"/>
<defs>
<linearGradient id="paint0_linear_72_13952" x1="175" y1="0" x2="175" y2="350" gradientUnits="userSpaceOnUse">
<stop stop-color="white" stop-opacity="0.67"/>
<stop offset="1" stop-color="white" stop-opacity="0"/>
</linearGradient>
<linearGradient id="paint1_linear_72_13952" x1="175" y1="0" x2="175" y2="350" gradientUnits="userSpaceOnUse">
<stop stop-color="white"/>
<stop offset="1" stop-color="white" stop-opacity="0"/>
</linearGradient>
<clipPath id="clip0_72_13952">
<rect width="268" height="162" fill="white" transform="translate(41 94)"/>
</clipPath>
</defs>
</svg>
